<?xml version="1.0" encoding="utf-8"?>
<!-- Generator: Adobe Illustrator 27.9.6, SVG Export Plug-In . SVG Version: 9.03 Build 54986)  -->
<svg version="1.1" xmlns="http://www.w3.org/2000/svg" xmlns:xlink="http://www.w3.org/1999/xlink" x="0px" y="0px"
	 viewBox="0 0 150 150" style="enable-background:new 0 0 150 150;" xml:space="preserve">
<style type="text/css">
	.st0{fill:#231F20;}
</style>
<g id="Layer_1">
</g>
<g id="Layer_2">
	<path class="st0" d="M95.3,27.6c17.4,8,28.6,25.9,28.3,45c-0.1,3-2.3,5.6-5.3,6.1c-18.6,3.1-33.2,17.8-36.4,36.4
		c-0.5,3-3.1,5.2-6.1,5.3c-1.5,0-3.1,0-4.6-0.1c-19-1.5-35.7-14.3-42.1-32.3c-6.4-18.2-1.2-39.1,13.1-52.1
		C56.5,22.9,77.7,19.5,95.3,27.6z M90.3,43.8c0-5.2-4.3-9.5-9.5-9.5c-5.2,0-9.5,4.3-9.5,9.5c0,5.2,4.3,9.5,9.5,9.5
		C85.9,53.4,90.3,49,90.3,43.8z M63.8,49.7c0-4.6-3.8-8.5-8.5-8.5c-4.6,0-8.5,3.8-8.5,8.5c0,4.6,3.8,8.5,8.5,8.5
		C59.9,58.1,63.8,54.3,63.8,49.7z M57.6,92.9c0-8.2-12.7-8.2-12.7,0C45,101,57.6,101,57.6,92.9z M51.7,70.6c0-4-3.4-7.4-7.4-7.4
		c-4,0-7.4,3.4-7.4,7.4s3.4,7.4,7.4,7.4C48.4,78,51.7,74.6,51.7,70.6z"/>
</g>
<g id="Layer_3">
</g>
<g id="Layer_4">
</g>
</svg>
