<?xml version="1.0" encoding="utf-8"?>
<!-- Generator: Adobe Illustrator 27.9.6, SVG Export Plug-In . SVG Version: 9.03 Build 54986)  -->
<svg version="1.1" xmlns="http://www.w3.org/2000/svg" xmlns:xlink="http://www.w3.org/1999/xlink" x="0px" y="0px"
	 viewBox="0 0 150 150" style="enable-background:new 0 0 150 150;" xml:space="preserve">
<style type="text/css">
	.st0{fill:#231F20;}
</style>
<g id="Layer_1">
</g>
<g id="Layer_2">
</g>
<g id="Layer_3">
	<path class="st0" d="M121.7,74.7l-12.3,6.7c-2.4,1.3-5.3-0.8-4.8-3.4c0.8-4.1,0.8-8.2,0-12.3c-0.6-2.7,2.4-4.8,4.8-3.4l12.3,6.7
		C124,70.2,124,73.4,121.7,74.7z"/>
	<path class="st0" d="M77.9,25.1l6.7,12.2c1.3,2.4-0.8,5.3-3.5,4.8c-4-0.8-8.2-0.8-12.2,0c-2.7,0.6-4.8-2.4-3.5-4.8l6.7-12.2
		C73.4,22.9,76.6,22.9,77.9,25.1z"/>
	<path class="st0" d="M84.6,106.3l-6.7,12.3c-1.2,2.3-4.5,2.3-5.7,0l-6.7-12.3c-1.3-2.4,0.8-5.3,3.5-4.8c4,0.8,8.2,0.8,12.3,0
		C83.8,100.9,85.9,103.9,84.6,106.3z"/>
	<path class="st0" d="M70.5,55.1c12.8-3.5,24.7,8.4,21.2,21.3c-1.6,5.9-6.3,10.6-12.2,12.1C66.7,92,54.8,80.1,58.3,67.3
		C59.9,61.4,64.6,56.7,70.5,55.1z"/>
	<path class="st0" d="M28.3,69l12.2-6.7c2.4-1.3,5.3,0.8,4.8,3.5c-0.8,4-0.8,8.2,0,12.3c0.6,2.7-2.4,4.8-4.8,3.5l-12.2-6.7
		C26,73.4,26,70.2,28.3,69z"/>
</g>
<g id="Layer_4">
</g>
</svg>
