<?xml version="1.0" encoding="utf-8"?>
<!-- Generator: Adobe Illustrator 27.9.6, SVG Export Plug-In . SVG Version: 9.03 Build 54986)  -->
<svg version="1.1" xmlns="http://www.w3.org/2000/svg" xmlns:xlink="http://www.w3.org/1999/xlink" x="0px" y="0px"
	 viewBox="0 0 150 150" style="enable-background:new 0 0 150 150;" xml:space="preserve">
<style type="text/css">
	.st0{fill:#231F20;}
</style>
<g id="Layer_1">
</g>
<g id="Layer_2">
</g>
<g id="Layer_3">
</g>
<g id="Layer_4">
	<path class="st0" d="M113.2,50.5v57.6c0,3.4-2.7,6.1-6.1,6.1H38.5c-3.4,0-6.1-2.7-6.1-6.1V39.4c0-3.4,2.7-6.1,6.1-6.1h57.6
		L64.9,64.6l-2.1,10.6H41.6c-1.2,0-2.2,1-2.2,2.2v4.5c0,2.9,4.5,2.9,4.5,0v-2.2h6.7V102h-2.2c-2.9,0-2.9,4.5,0,4.5h8.9
		c2.9,0,2.9-4.5,0-4.5h-2.2V79.7h6.7v1.2L61.2,83c-0.3,1.4,1,2.7,2.4,2.4L82,81.7L113.2,50.5z"/>
	<polygon class="st0" points="115.8,42.2 80.1,78 65.8,80.8 68.6,66.5 104.4,30.8 	"/>
	<path class="st0" d="M123,23.6c3.1,3.1,3.1,8.3,0,11.4l-4.3,4.3l-11.4-11.4l4.3-4.3C114.6,20.5,119.8,20.5,123,23.6z"/>
</g>
</svg>
