<?xml version="1.0" encoding="utf-8"?>
<!-- Generator: Adobe Illustrator 27.9.6, SVG Export Plug-In . SVG Version: 9.03 Build 54986)  -->
<svg version="1.1" xmlns="http://www.w3.org/2000/svg" xmlns:xlink="http://www.w3.org/1999/xlink" x="0px" y="0px"
	 viewBox="0 0 150 150" style="enable-background:new 0 0 150 150;" xml:space="preserve">
<style type="text/css">
	.st0{fill:#231F20;}
</style>
<g id="Layer_1">
	<path class="st0" d="M126.6,115.6v2c0,2.7-1.8,4.9-3.9,4.9H21.1c-2.2,0-3.9-2.2-3.9-4.9v-2c0-2.7,1.8-4.9,3.9-4.9h101.6
		C124.9,110.6,126.6,112.8,126.6,115.6z"/>
	<path class="st0" d="M62.4,51.3v53.4H48.1v-5.9h7.1c3.1,0,3.1-5.9,0-5.9h-7.1v-5.9h2.4c3.1,0,3.1-5.9,0-5.9h-2.4V75h7.1
		c3.1,0,3.1-5.9,0-5.9h-7.1v-5.9h2.4c3.1,0,3.1-5.9,0-5.9h-2.4v-5.9H62.4z"/>
	<polygon class="st0" points="86.2,73.7 86.2,104.7 81.4,104.7 81.4,70.8 	"/>
	<polygon class="st0" points="88.5,53.7 94.6,64.9 88.5,68.6 82.5,64.9 	"/>
	<path class="st0" d="M126.6,31.2V101c0,2.1-1.3,3.7-3,3.7h-20.2c-1.6,0-3-1.7-3-3.7V66.3c0-0.7-0.2-1.5-0.5-2.1l-9.4-17.6
		c-0.9-1.8-3-1.7-4,0l-9.4,17.6c-0.3,0.6-0.5,1.3-0.5,2.1V101c0,2.1-1.3,3.7-3,3.7h-3.5c-1.6,0-3-1.7-3-3.7V52
		c0-3.7-2.4-6.7-5.4-6.7H48.7c-3,0-5.4,3-5.4,6.7v49c0,2.1-1.3,3.7-3,3.7H20.1c-1.6,0-3-1.7-3-3.7V31.2c0-2.1,1.3-3.7,3-3.7h103.5
		C125.3,27.5,126.6,29.2,126.6,31.2z"/>
</g>
<g id="Layer_2">
</g>
<g id="Layer_3">
</g>
<g id="Layer_4">
</g>
</svg>
